<mxfile host="app.diagrams.net" agent="Mozilla/5.0 (Windows NT 10.0; Win64; x64) AppleWebKit/537.36 (KHTML, like Gecko) Chrome/131.0.0.0 Safari/537.36" version="26.0.5">
  <diagram name="Page-1" id="v6F6xDzneCcHNwHWlU3A">
    <mxGraphModel dx="1289" dy="605" grid="1" gridSize="10" guides="1" tooltips="1" connect="1" arrows="1" fold="1" page="1" pageScale="1" pageWidth="850" pageHeight="1100" math="0" shadow="0">
      <root>
        <mxCell id="0" />
        <mxCell id="1" parent="0" />
        <mxCell id="sg4gesi2cODfk8A6LnWf-11" style="edgeStyle=orthogonalEdgeStyle;rounded=0;orthogonalLoop=1;jettySize=auto;html=1;entryX=0;entryY=0.25;entryDx=0;entryDy=0;" edge="1" parent="1" source="sg4gesi2cODfk8A6LnWf-7" target="sg4gesi2cODfk8A6LnWf-3">
          <mxGeometry relative="1" as="geometry" />
        </mxCell>
        <mxCell id="sg4gesi2cODfk8A6LnWf-12" style="edgeStyle=orthogonalEdgeStyle;rounded=0;orthogonalLoop=1;jettySize=auto;html=1;entryX=0;entryY=0.5;entryDx=0;entryDy=0;" edge="1" parent="1" source="sg4gesi2cODfk8A6LnWf-7" target="sg4gesi2cODfk8A6LnWf-5">
          <mxGeometry relative="1" as="geometry" />
        </mxCell>
        <mxCell id="sg4gesi2cODfk8A6LnWf-16" value="" style="edgeStyle=orthogonalEdgeStyle;rounded=0;orthogonalLoop=1;jettySize=auto;html=1;" edge="1" parent="1" source="sg4gesi2cODfk8A6LnWf-7" target="sg4gesi2cODfk8A6LnWf-15">
          <mxGeometry relative="1" as="geometry" />
        </mxCell>
        <mxCell id="sg4gesi2cODfk8A6LnWf-7" value="Data Sources&lt;div&gt;&lt;br&gt;&lt;/div&gt;" style="rounded=1;whiteSpace=wrap;html=1;" vertex="1" parent="1">
          <mxGeometry x="60" y="160" width="180" height="240" as="geometry" />
        </mxCell>
        <mxCell id="sg4gesi2cODfk8A6LnWf-18" value="" style="edgeStyle=orthogonalEdgeStyle;rounded=0;orthogonalLoop=1;jettySize=auto;html=1;" edge="1" parent="1" source="sg4gesi2cODfk8A6LnWf-3" target="sg4gesi2cODfk8A6LnWf-17">
          <mxGeometry relative="1" as="geometry" />
        </mxCell>
        <mxCell id="sg4gesi2cODfk8A6LnWf-3" value="TimeFrame - Compare the code before &amp;amp; after&amp;nbsp;&lt;br&gt;Then Summarize and Display on a board" style="rounded=0;whiteSpace=wrap;html=1;" vertex="1" parent="1">
          <mxGeometry x="240" y="70" width="280" height="60" as="geometry" />
        </mxCell>
        <mxCell id="sg4gesi2cODfk8A6LnWf-1" value="BrowserExtension/&lt;div&gt;IDE Extensions/&lt;/div&gt;&lt;div&gt;Third&lt;span style=&quot;background-color: transparent; color: light-dark(rgb(0, 0, 0), rgb(255, 255, 255));&quot;&gt;&amp;nbsp;Party Website Inregration&lt;/span&gt;&lt;/div&gt;" style="rounded=0;whiteSpace=wrap;html=1;" vertex="1" parent="1">
          <mxGeometry x="90" y="180" width="120" height="60" as="geometry" />
        </mxCell>
        <mxCell id="sg4gesi2cODfk8A6LnWf-5" value="LeaderBoard To track how much daily coding is being done &amp;amp; on which language (RealTime&lt;span style=&quot;background-color: transparent; color: light-dark(rgb(0, 0, 0), rgb(255, 255, 255));&quot;&gt;)&lt;/span&gt;" style="rounded=0;whiteSpace=wrap;html=1;" vertex="1" parent="1">
          <mxGeometry x="240" y="420" width="280" height="60" as="geometry" />
        </mxCell>
        <mxCell id="sg4gesi2cODfk8A6LnWf-10" value="GitHub Repo Of Users" style="rounded=0;whiteSpace=wrap;html=1;" vertex="1" parent="1">
          <mxGeometry x="90" y="300" width="120" height="60" as="geometry" />
        </mxCell>
        <mxCell id="sg4gesi2cODfk8A6LnWf-15" value="Allow Tweets/Posts on socials based upon Timeframes" style="rounded=1;whiteSpace=wrap;html=1;" vertex="1" parent="1">
          <mxGeometry x="310" y="250" width="160" height="60" as="geometry" />
        </mxCell>
        <mxCell id="sg4gesi2cODfk8A6LnWf-17" value="Detailed View of the changes they&#39;re making to their code" style="whiteSpace=wrap;html=1;rounded=0;" vertex="1" parent="1">
          <mxGeometry x="610" y="70" width="120" height="60" as="geometry" />
        </mxCell>
        <mxCell id="sg4gesi2cODfk8A6LnWf-22" value="" style="edgeStyle=orthogonalEdgeStyle;rounded=0;orthogonalLoop=1;jettySize=auto;html=1;" edge="1" parent="1" source="sg4gesi2cODfk8A6LnWf-19" target="sg4gesi2cODfk8A6LnWf-21">
          <mxGeometry relative="1" as="geometry" />
        </mxCell>
        <mxCell id="sg4gesi2cODfk8A6LnWf-19" value="&lt;div&gt;&lt;b&gt;&lt;font style=&quot;font-size: 18px;&quot;&gt;&lt;br&gt;&lt;/font&gt;&lt;/b&gt;&lt;/div&gt;&lt;div&gt;&lt;b&gt;&lt;font style=&quot;font-size: 18px;&quot;&gt;USP&lt;/font&gt;&lt;/b&gt;&lt;/div&gt;Force Colleges or Companies to find the most suitable person for their requirements&lt;div&gt;&lt;br&gt;&lt;/div&gt;&lt;div&gt;Even if one of them accepted this the other one will have to use it !!&amp;nbsp;&lt;/div&gt;" style="rounded=0;whiteSpace=wrap;html=1;" vertex="1" parent="1">
          <mxGeometry x="560" y="200" width="240" height="120" as="geometry" />
        </mxCell>
        <mxCell id="sg4gesi2cODfk8A6LnWf-21" value="&lt;b&gt;&lt;font style=&quot;font-size: 14px;&quot;&gt;How will we make money??&lt;/font&gt;&lt;/b&gt;&lt;div&gt;&lt;br&gt;&lt;/div&gt;&lt;div&gt;We will charge some sort of subscription from the companies to view the data&lt;/div&gt;&lt;div&gt;&lt;div&gt;&lt;br&gt;&lt;/div&gt;&lt;/div&gt;" style="whiteSpace=wrap;html=1;rounded=0;" vertex="1" parent="1">
          <mxGeometry x="560" y="430" width="240" height="100" as="geometry" />
        </mxCell>
      </root>
    </mxGraphModel>
  </diagram>
</mxfile>
